<svg width="430" height="430" viewBox="0 0 430 430" fill="none" xmlns="http://www.w3.org/2000/svg">
<circle cx="215" cy="215" r="213" fill="black" stroke="black" stroke-width="4"/>
<path d="M325 216C295.566 189.505 263.397 188.494 252 178C266.368 129.227 277 84.7814 252 63.8117C195 16 103.74 6.69315 80.0003 161C80.0003 161 48 230 40.0001 265C32.0001 300 73.0005 299 80.0003 291C87 283 104 236 104 236C104 236 123 376 149 402C175 428 195 390 195 390C196.719 373.937 222.806 387.443 252 396C269.109 399.253 278 385 290 370C302 355 314 370 314 370C325.553 383.813 359.868 369.662 362 341C364.132 312.338 302 255 302 255C330 267 354.434 242.495 325 216Z" fill="white"/>
<path d="M302 255C330 267 354.434 242.495 325 216C295.566 189.505 263.397 188.494 252 178C266.368 129.227 277 84.7814 252 63.8117C195 16 103.74 6.69315 80.0003 161C80.0003 161 48 230 40.0001 265C32.0001 300 73.0005 299 80.0003 291C87 283 104 236 104 236C104 236 123 376 149 402C175 428 195 390 195 390C196.719 373.937 222.806 387.443 252 396C269.109 399.253 278 385 290 370C302 355 314 370 314 370C325.553 383.813 359.868 369.662 362 341C364.132 312.338 302 255 302 255ZM302 255C274 243 252 230 252 230" stroke="black" stroke-width="5"/>
<path d="M113.232 101.08C113.232 101.08 110.232 110.08 107.232 125.08C104.232 140.08 131.232 136.08 133.232 125.08C135.232 114.08 138.232 101.08 139.232 90.08C140.232 79.08 113.232 101.08 113.232 101.08Z" fill="black"/>
<path d="M187.232 90.08C176.232 90.08 164.232 131.08 174.232 131.08C184.232 131.08 192.232 137.08 198.232 131.08C204.232 125.08 197.232 95.08 197.232 95.08L187.232 90.08Z" fill="black"/>
<path d="M187.232 90.08C176.232 90.08 164.232 131.08 174.232 131.08C184.232 131.08 192.232 137.08 198.232 131.08C204.232 125.08 197.232 95.08 197.232 95.08M187.232 90.08C198.232 90.08 197.232 95.08 197.232 95.08M187.232 90.08L197.232 95.08M133.232 172.08C157.329 182.585 160.553 179.34 167.232 172.08M113.232 101.08C113.232 101.08 110.232 110.08 107.232 125.08C104.232 140.08 131.232 136.08 133.232 125.08C135.232 114.08 138.232 101.08 139.232 90.08C140.232 79.08 113.232 101.08 113.232 101.08Z" stroke="black" stroke-width="3"/>
</svg>
